<svg width="36" height="36" viewBox="0 0 36 36" fill="none" xmlns="http://www.w3.org/2000/svg">
<path d="M17.9999 1.43994C8.86281 1.43994 1.43994 8.86281 1.43994 17.9999C1.43994 20.9369 2.2454 23.6778 3.58869 26.0704L1.46666 33.6459C1.43276 33.7671 1.43123 33.8951 1.46222 34.0171C1.49321 34.1391 1.55564 34.2508 1.64328 34.3412C1.73093 34.4315 1.84073 34.4973 1.96173 34.532C2.08273 34.5667 2.21071 34.569 2.33291 34.5388L10.2318 32.5813C12.5529 33.8204 15.1866 34.5599 17.9999 34.5599C27.1371 34.5599 34.5599 27.1371 34.5599 17.9999C34.5599 8.86281 27.1371 1.43994 17.9999 1.43994ZM17.9999 2.87994C26.3588 2.87994 33.1199 9.64108 33.1199 17.9999C33.1199 26.3588 26.3588 33.1199 17.9999 33.1199C15.3201 33.1199 12.8103 32.4213 10.6284 31.2004C10.4688 31.1112 10.2813 31.0861 10.1038 31.1301L3.1865 32.8443L5.04135 26.2265C5.06789 26.133 5.07522 26.0351 5.06289 25.9386C5.05057 25.8422 5.01884 25.7493 4.96963 25.6654C3.64364 23.4169 2.87994 20.8008 2.87994 17.9999C2.87994 9.64108 9.64108 2.87994 17.9999 2.87994ZM11.9826 9.35994C11.521 9.35994 10.8619 9.53165 10.3204 10.1151C9.99517 10.4655 8.63994 11.786 8.63994 14.1074C8.63994 16.5277 10.3185 18.6162 10.5215 18.8845H10.5229V18.8859C10.5037 18.8606 10.7805 19.2615 11.1501 19.7423C11.5197 20.2231 12.0365 20.8545 12.6857 21.5381C13.9842 22.9052 15.8099 24.4853 18.0759 25.4517C19.1194 25.896 19.9426 26.1643 20.5663 26.3601C21.7222 26.723 22.775 26.6679 23.5659 26.5513C24.1578 26.4642 24.8089 26.1799 25.4531 25.7723C26.0972 25.3646 26.7286 24.8577 27.007 24.0876C27.2064 23.5355 27.3078 23.0253 27.3445 22.6054C27.3628 22.3955 27.3651 22.2102 27.3515 22.0387C27.3378 21.8672 27.3524 21.7358 27.1926 21.4734C26.8574 20.923 26.4778 20.9086 26.0817 20.7126C25.8616 20.6037 25.235 20.2977 24.6065 19.9982C23.9787 19.6991 23.4352 19.4341 23.1004 19.3148C22.8889 19.2387 22.6307 19.1292 22.2581 19.1713C21.8855 19.2135 21.5175 19.4824 21.3032 19.7999C21.1001 20.101 20.2826 21.066 20.0334 21.3496C20.0301 21.3476 20.0517 21.3576 19.9532 21.3088C19.645 21.1563 19.268 21.0266 18.7101 20.7323C18.1522 20.438 17.4544 20.0034 16.6907 19.3303V19.3288C15.5541 18.3282 14.758 17.0719 14.5068 16.6499C14.5237 16.6298 14.5048 16.6542 14.5406 16.619L14.542 16.6176C14.7987 16.3648 15.0262 16.0628 15.2184 15.8413C15.4909 15.5274 15.6112 15.2506 15.7415 14.992C16.0012 14.4766 15.8566 13.9094 15.7063 13.611V13.6096C15.7167 13.6303 15.6251 13.4281 15.5263 13.1948C15.4273 12.9608 15.3011 12.6576 15.1663 12.3342C14.8968 11.6873 14.5958 10.9619 14.4168 10.537V10.5356C14.206 10.0351 13.9207 9.67451 13.5478 9.50057C13.1748 9.32662 12.8453 9.37607 12.832 9.37541H12.8306C12.5644 9.36313 12.2724 9.35994 11.9826 9.35994ZM11.9826 10.7999C12.2602 10.7999 12.5339 10.8033 12.7631 10.814C12.9989 10.8258 12.9842 10.8267 12.9388 10.8056C12.8928 10.7841 12.9553 10.7771 13.0893 11.0953C13.2646 11.5113 13.567 12.2394 13.8374 12.8882C13.9726 13.2126 14.0992 13.5171 14.2003 13.7559C14.3013 13.9947 14.3561 14.128 14.4196 14.2551V14.2565L14.421 14.2579C14.4833 14.3808 14.4778 14.3021 14.4562 14.3451C14.3042 14.6467 14.2836 14.7207 14.1299 14.8978C13.8959 15.1673 13.6572 15.468 13.5309 15.5924C13.4203 15.701 13.2209 15.8702 13.0963 16.2013C12.9716 16.533 13.0298 16.988 13.2299 17.3278C13.4964 17.7801 14.3743 19.209 15.7387 20.4103C16.5979 21.1677 17.3984 21.669 18.0379 22.0063C18.6774 22.3437 19.1982 22.5407 19.3148 22.5984C19.5915 22.7353 19.894 22.8417 20.2457 22.7995C20.5974 22.7572 20.9007 22.5438 21.0937 22.3256L21.0951 22.3242C21.352 22.0329 22.1154 21.1613 22.4817 20.624C22.4972 20.6295 22.4921 20.6252 22.6138 20.669V20.6704H22.6153C22.6708 20.6902 23.367 21.0018 23.9878 21.2976C24.6085 21.5934 25.2385 21.9008 25.4432 22.0021C25.7387 22.1483 25.8783 22.2435 25.9143 22.244C25.9168 22.3074 25.9192 22.376 25.9101 22.4803C25.8848 22.7694 25.8075 23.1697 25.6528 23.5982C25.5769 23.808 25.182 24.2407 24.6838 24.5559C24.1857 24.8711 23.5795 25.0938 23.3549 25.1268C22.6799 25.2263 21.8783 25.2626 20.9981 24.9862C20.3877 24.7946 19.6266 24.5466 18.6412 24.127C16.6426 23.2746 14.944 21.8242 13.7306 20.5467C13.1239 19.9079 12.6378 19.3132 12.292 18.8634C11.9468 18.4144 11.7961 18.1807 11.6704 18.0154L11.669 18.014C11.4459 17.719 10.0799 15.819 10.0799 14.1074C10.0799 12.2961 10.9213 11.5858 11.3765 11.0953C11.6155 10.8377 11.8768 10.7999 11.9826 10.7999Z" fill="#1D6829"/>
</svg>
