<svg width="71" height="66" viewBox="0 0 71 66" fill="none" xmlns="http://www.w3.org/2000/svg">
<path d="M4.51014 0C2.04046 0 0 1.89676 0 4.19252V61.8075C0 64.1032 2.04046 66 4.51014 66H66.4899C68.9595 66 71 64.1094 71 61.8075V4.19252C71 1.89676 68.9661 0 66.4899 0H4.51014ZM4.51014 3.14286H66.4899C67.1172 3.14286 67.619 3.60938 67.619 4.19252V61.8075C67.619 62.3906 67.1172 62.8571 66.4899 62.8571H4.51014C3.88281 62.8571 3.38095 62.3906 3.38095 61.8075V4.19252C3.38095 3.60938 3.88281 3.14286 4.51014 3.14286ZM32.119 29.8571V49.6166C32.119 52.649 30.8842 53.4286 28.7381 53.4286C26.4929 53.4286 24.9345 52.1272 23.9044 50.4392L18.5952 53.4286C20.1338 56.4548 23.9044 59.7143 29.1343 59.7143C34.9189 59.7143 38.881 56.8538 38.881 50.5742V29.8571H32.119ZM53.1708 29.8571C47.4126 29.8571 43.7213 33.2824 43.7213 37.7818C43.7213 42.6618 46.8183 44.9699 51.4737 46.8114L53.0849 47.4559C56.0234 48.6529 57.4762 49.3834 57.4762 51.4397C57.4762 53.1523 56.0763 54.3923 53.4019 54.3923C50.219 54.3923 48.7134 52.385 47.3333 50.2857L42.2619 53.4286C44.1571 56.909 47.5578 59.7143 53.5472 59.7143C59.6751 59.7143 64.2381 56.7556 64.2381 51.3599C64.2381 46.351 61.1477 44.1228 55.6602 41.9375L54.049 41.2991C51.2822 40.1819 50.0804 39.4576 50.0804 37.659C50.0804 36.2042 51.2822 35.0871 53.1708 35.0871C55.0263 35.0871 56.2149 35.8175 57.3177 37.659L62.3429 34.6635C60.2232 31.183 57.2715 29.8571 53.1708 29.8571Z" fill="url(#paint0_linear_18_15)"/>
<defs>
<linearGradient id="paint0_linear_18_15" x1="35.5" y1="0" x2="35.5" y2="66" gradientUnits="userSpaceOnUse">
<stop stop-color="#33D2FF"/>
<stop offset="0.5" stop-color="#7404BF"/>
<stop offset="1" stop-color="#0029FA" stop-opacity="0.39"/>
</linearGradient>
</defs>
</svg>
