<svg width="154" height="104" viewBox="0 0 154 104" fill="none" xmlns="http://www.w3.org/2000/svg">
<path d="M88.8533 89.9357C89.183 80.9898 95.3735 74.0008 103.908 70.9955C106.729 69.9821 109.476 68.9337 111.857 67.1865C120.941 60.5469 125.081 50.8322 124.385 39.9992C124.238 37.5181 123.835 34.8273 124.128 32.5559C125.41 23.1557 133.798 17.1102 142.37 13.4409C142.443 13.406 142.443 13.3361 142.443 13.3011C142.443 13.2662 142.407 13.2662 142.407 13.2662C138.597 11.3792 134.092 10.6104 130.245 12.9517C130.026 13.0915 129.696 13.0216 129.549 12.8119C129.513 12.777 129.513 12.742 129.513 12.7071C127.791 8.47873 125.264 6.2073 120.502 5.40356C115.227 4.49499 112.004 6.13741 107.938 9.21257C100.538 14.7339 93.2489 20.3251 85.9961 25.9513C85.9229 25.9862 85.9229 26.091 85.9595 26.126C85.9961 26.1609 86.0328 26.1609 86.0694 26.1609C88.78 26.091 91.5639 26.0561 94.3478 26.0212C102.077 25.9513 107.828 28.9565 111.491 35.1069C116.582 43.5985 114.714 53.3133 107.352 59.8829C103.029 63.7269 97.9376 65.4742 92.0767 65.1247C90.2452 65.0199 86.7287 64.321 86.9852 61.8748C87.095 60.8964 87.7544 60.4071 88.9998 60.4421C91.5639 60.477 94.2379 60.4071 96.6189 59.7781C101.527 58.5201 105.044 55.7245 107.205 51.3913C110.172 45.4157 108.817 38.1471 103.469 33.9537C101.015 32.0317 98.1573 31.1231 94.824 31.1581C87.9375 31.2629 83.0657 31.3678 80.1719 31.5075C78.78 31.5774 77.6445 32.1715 76.4357 33.0451C70.5748 37.4133 64.714 41.7814 58.8166 46.1146C57.3147 47.2328 54.4576 49.5742 50.2817 53.1385C50.1719 53.2084 50.2085 53.2783 50.3184 53.2783C54.3843 53.5928 58.4136 53.5579 62.443 53.2434C67.095 52.859 71.0144 51.4262 74.8606 49.1199C78.1573 47.1629 81.4174 45.206 84.6775 43.2141C85.4833 42.7249 86.1427 42.4104 86.5822 42.3405C89.183 41.8163 91.3441 44.6469 88.8899 46.3592C82.4796 50.7972 75.117 55.7944 67.4613 57.4368C63.1389 58.3454 58.67 58.6249 53.6151 58.7298C46.8385 58.9045 40.1352 59.0093 33.5418 59.1142C33.0289 59.1142 32.9557 58.9744 33.3952 58.6948C36.2158 56.668 38.9997 54.6412 41.7836 52.5445C56.4722 41.5018 71.1609 30.4941 85.8496 19.4864C92.6995 14.3844 99.3661 9.07279 106.216 3.97081C111.564 -0.0129276 117.498 -0.99139 123.982 1.00048C127.168 1.97894 129.733 3.79609 131.747 6.45191C131.82 6.55675 131.93 6.59169 132.04 6.55675C138.451 5.33367 145.484 7.6051 150.905 10.7851C152.04 11.4491 153.029 12.1829 153.945 13.0216C154.018 13.0915 154.018 13.2313 153.945 13.3361C153.945 13.371 153.908 13.371 153.872 13.371C149.549 15.3629 145.227 17.4596 140.978 19.6961C135.74 22.4568 130.172 27.1394 129.549 32.7656C129.256 35.5262 129.989 39.4051 130.026 41.6416C130.245 52.8939 124.971 63.4473 115.96 70.5761C113.359 72.6379 110.575 74.1755 107.535 75.1889C97.2782 78.6834 93.2123 84.2746 94.3112 94.863C94.3478 95.1775 94.6409 95.4221 94.9705 95.457C98.5236 95.5968 102.956 95.3872 105.996 96.1559C109.696 97.1344 113.066 99.6854 115.557 102.481V102.516H115.52C111.894 101.013 107.278 100.978 103.395 100.943C92.0767 100.908 80.758 100.839 69.4393 100.804C64.8605 100.804 58.8166 101.712 54.7873 103.914C54.5308 104.054 54.5308 104.019 54.7506 103.844C59.7323 99.93 63.9448 96.6102 70.5382 95.7366C75.41 95.0726 80.7214 95.457 85.813 95.5619C85.8863 95.5619 85.9229 95.5269 85.9229 95.457C85.9229 95.4221 85.9229 95.3872 85.8862 95.3872C82.0035 91.4384 77.3514 88.6427 71.8935 87.0702C70.9045 86.7907 70.2452 86.7907 69.2562 87.2799C66.8386 88.468 64.1646 89.0271 61.1609 88.9922C48.6334 88.8874 28.3037 88.8524 0.171704 88.9223C-0.0114469 88.9223 -0.0480771 88.8524 0.0618134 88.7126C0.354855 88.3632 0.757786 87.9788 1.23398 87.5595C6.50872 82.9118 12.8824 77.3904 19.1828 73.3368C25.3366 69.388 31.3806 68.13 38.7066 68.2698C43.3586 68.3746 47.9008 69.0386 51.8568 67.2564C54.4576 66.1032 56.8385 64.95 59.7323 64.1113C62.443 63.3425 65.117 62.4339 67.6811 61.3856C67.7543 61.3506 67.8642 61.3856 67.9008 61.4555C67.9375 61.5254 67.9008 61.5603 67.8642 61.6302C62.2232 68.4095 55.703 73.0223 46.3623 73.5115C45.703 73.5465 43.9814 73.4766 41.2341 73.3019C33.9081 72.8476 27.5711 73.5814 21.5271 77.9496C19.0362 79.7318 16.8751 81.5838 14.9703 83.5058C14.8604 83.6107 14.897 83.6805 15.0435 83.6805C16.1424 83.7504 17.2414 83.8203 18.3036 83.8203C32.8824 83.8203 47.4246 83.8203 61.9668 83.7854C67.1682 83.7854 72.7727 78.4737 77.095 74.8394C77.8276 74.2104 78.5602 74.3153 79.2196 75.1539C79.2928 75.2238 79.2928 75.3287 79.2928 75.4335C79.0364 77.6001 76.2525 80.3258 74.4943 81.9333C74.3844 82.0381 74.3844 82.108 74.5309 82.143C79.8789 83.7155 84.5676 86.3364 88.6335 90.0056C88.78 90.1454 88.8533 90.1104 88.8533 89.9357Z" fill="url(#paint0_linear_28_268)"/>
<defs>
<linearGradient id="paint0_linear_28_268" x1="-0.0114469" y1="51.9871" x2="153.989" y2="51.9871" gradientUnits="userSpaceOnUse">
<stop offset="0.0808717" stop-color="#525252" stop-opacity="0"/>
<stop offset="0.3009" stop-color="#616161" stop-opacity="0.3758"/>
<stop offset="0.4614" stop-color="#6F6F6F" stop-opacity="0.65"/>
<stop offset="0.5354" stop-color="#5F5F5F" stop-opacity="0.7004"/>
<stop offset="0.6667" stop-color="#484848" stop-opacity="0.7899"/>
<stop offset="0.7914" stop-color="#3B3B3B" stop-opacity="0.8749"/>
<stop offset="0.9015" stop-color="#363636" stop-opacity="0.95"/>
</linearGradient>
</defs>
</svg>
