<svg width="56" height="81" viewBox="0 0 56 81" fill="none" xmlns="http://www.w3.org/2000/svg">
<path d="M14.875 0C6.68066 0 0 6.57913 0 14.6489C0 20.3367 3.41237 25.1494 8.24072 27.5745C3.41237 29.9995 0 34.8123 0 40.5C0 46.1877 3.41237 51.0005 8.24072 53.4255C3.41237 55.8506 0 60.6633 0 66.3511C0 74.4209 6.68066 81 14.875 81C23.0693 81 29.75 74.4209 29.75 66.3511V53.4255V47.6629C32.0974 52.0498 36.6311 55.1489 42 55.1489C49.7113 55.1489 56 48.9558 56 41.3617C56 35.12 51.6708 30.0367 45.876 28.3487C51.7187 26.371 56 21.0604 56 14.6489C56 6.57913 49.3193 0 41.125 0H28H14.875ZM14.875 3.44681H26.25V25.8511H14.875C8.57234 25.8511 3.5 20.8558 3.5 14.6489C3.5 8.44206 8.57234 3.44681 14.875 3.44681ZM29.75 3.44681H41.125C47.4277 3.44681 52.5 8.44206 52.5 14.6489C52.5 20.8558 47.4277 25.8511 41.125 25.8511H29.75V3.44681ZM14.875 29.2979H26.25V51.7021H14.875C8.57234 51.7021 3.5 46.7069 3.5 40.5C3.5 34.2931 8.57234 29.2979 14.875 29.2979ZM29.75 29.2979H35.6016C33.0905 30.601 31.0733 32.5876 29.75 35.0605V29.2979ZM42 31.0213C47.8197 31.0213 52.5 35.6304 52.5 41.3617C52.5 47.093 47.8197 51.7021 42 51.7021C36.1803 51.7021 31.5 47.093 31.5 41.3617C31.5 35.6304 36.1803 31.0213 42 31.0213ZM14.875 55.1489H26.25V66.3511C26.25 72.5579 21.1777 77.5532 14.875 77.5532C8.57234 77.5532 3.5 72.5579 3.5 66.3511C3.5 60.1442 8.57234 55.1489 14.875 55.1489Z" fill="url(#paint0_linear_18_19)"/>
<defs>
<linearGradient id="paint0_linear_18_19" x1="28" y1="0" x2="28" y2="81" gradientUnits="userSpaceOnUse">
<stop stop-color="#33D2FF"/>
<stop offset="0.5" stop-color="#7404BF"/>
<stop offset="1" stop-color="#0029FA" stop-opacity="0.39"/>
</linearGradient>
</defs>
</svg>
