<svg width="68" height="74" viewBox="0 0 68 74" fill="none" xmlns="http://www.w3.org/2000/svg">
<path d="M1.3556 0C0.501947 0.150783 -0.0865569 0.923548 0.0104495 1.75914L5.85668 65.1886C5.93428 65.8357 6.40638 66.3697 7.04662 66.5457L33.5357 73.934C33.8397 74.022 34.163 74.022 34.467 73.934L60.9561 66.5457C61.5963 66.3697 62.0684 65.8357 62.146 65.1886L67.9923 1.75914C68.0375 1.30679 67.8823 0.86072 67.5655 0.521459C67.2486 0.18848 66.8023 0 66.3367 0H1.66602C1.61428 0 1.56255 0 1.51081 0C1.45907 0 1.40734 0 1.3556 0ZM3.4768 3.21671H64.5259L58.9901 63.7813L34.0014 70.6671L9.01261 63.7813L3.4768 3.21671ZM13.3585 12.9674C12.5048 13.1181 11.9163 13.8909 12.0133 14.7265L14.238 38.5C14.2897 39.3293 14.9882 39.9827 15.8418 40.0078H42.2792L41.5549 47.3962L34.0531 48.9543L26.4478 47.3962L26.1891 44.7826C26.1374 43.9345 25.4066 43.2748 24.5336 43.2748H16.4627C15.997 43.2748 15.5508 43.4633 15.2339 43.7962C14.917 44.1355 14.7618 44.5816 14.8071 45.0339L15.7384 54.8851C15.7901 55.5322 16.2363 56.0914 16.8766 56.2924L33.3288 61.1677L33.5357 61.218C33.8397 61.3059 34.163 61.3059 34.467 61.218L51.1262 56.2924C51.7858 56.1102 52.2579 55.551 52.3161 54.8851L54.489 30.7095C54.5343 30.2634 54.3856 29.8237 54.0816 29.4907C53.7777 29.1577 53.3444 28.9629 52.8852 28.9504H24.6888L24.2749 23.9745H53.6095C54.4696 23.9808 55.1875 23.3463 55.2651 22.517L55.9894 14.7265C56.0347 14.2741 55.8795 13.8281 55.5626 13.4888C55.2457 13.1558 54.7995 12.9674 54.3338 12.9674H13.6689C13.5654 12.9548 13.462 12.9548 13.3585 12.9674ZM15.4797 16.1841H52.523L52.1092 20.7578H22.4641C21.9985 20.7578 21.5523 20.9463 21.2354 21.2793C20.9185 21.6185 20.7633 22.0646 20.8085 22.517L21.5846 30.7095C21.6622 31.52 22.3542 32.1482 23.1884 32.1671H51.0744L49.1084 53.528L34.0014 57.951L18.8943 53.528L18.2735 46.4915H23.0332L23.2402 48.8538C23.2919 49.5637 23.8157 50.1543 24.5336 50.3113L33.7427 52.171C33.9626 52.215 34.1954 52.215 34.4153 52.171L43.4692 50.3113C44.187 50.1543 44.7108 49.5637 44.7626 48.8538L45.7456 38.5C45.7714 38.0539 45.6097 37.6204 45.2993 37.3C44.9824 36.9733 44.5492 36.7911 44.09 36.7911H17.3422L15.4797 16.1841Z" fill="url(#paint0_linear_18_11)"/>
<defs>
<linearGradient id="paint0_linear_18_11" x1="34" y1="0" x2="34" y2="74" gradientUnits="userSpaceOnUse">
<stop stop-color="#33D2FF"/>
<stop offset="0.5" stop-color="#7404BF"/>
<stop offset="1" stop-color="#0029FA" stop-opacity="0.39"/>
</linearGradient>
</defs>
</svg>
