<svg width="71" height="65" viewBox="0 0 71 65" fill="none" xmlns="http://www.w3.org/2000/svg">
<path d="M22.7191 0C20.9115 0 19.2351 0.410912 17.75 1.27911C13.1088 4.00024 11.3421 10.6314 12.2782 18.8874C4.77091 22.1923 0 27.0585 0 32.5C0 37.9415 4.77091 42.8077 12.2782 46.1126C11.3426 54.3683 13.1088 60.9998 17.75 63.7209C19.2321 64.5891 20.9086 65 22.7191 65C26.5727 65 31.0266 63.036 35.5 59.6665C39.9738 63.036 44.4331 65 48.2867 65C50.0942 65 51.7707 64.5891 53.2558 63.7209C57.897 60.9998 59.6636 54.3685 58.7275 46.1126C66.232 42.8078 71 37.9403 71 32.5C71 27.0585 66.2291 22.1923 58.7218 18.8874C59.6574 10.6317 57.8912 4.00024 53.25 1.27911C51.7679 0.407908 50.0914 0 48.2809 0C44.4273 0 39.9734 1.96403 35.5 5.33354C31.0263 1.96403 26.5713 0 22.7191 0ZM22.7191 5.25727C25.0314 5.25727 28.0893 6.50582 31.4092 8.81883C29.4572 10.6895 27.5455 12.8166 25.7063 15.1851C22.7232 15.6194 19.9106 16.2526 17.3051 17.045C17.2911 16.8616 17.258 16.669 17.2473 16.4876C16.9308 11.1402 18.0872 7.15411 20.3385 5.83228C21.0042 5.44174 21.7813 5.25727 22.7191 5.25727ZM48.2809 5.25727C49.2158 5.25727 49.9958 5.44174 50.6615 5.83228C52.9128 7.1511 54.0692 11.1402 53.7527 16.4876C53.742 16.669 53.709 16.8616 53.6949 17.045C51.0878 16.2521 48.2731 15.6194 45.2879 15.1851C43.4487 12.8169 41.5427 10.6893 39.5908 8.81883C42.9105 6.5062 45.9698 5.25727 48.2809 5.25727ZM35.5 12.1574C36.3019 12.8987 37.0983 13.6821 37.9036 14.5396C37.1055 14.5124 36.3117 14.4751 35.5 14.4751C34.6903 14.4751 33.8984 14.5125 33.1021 14.5396C33.9068 13.683 34.6988 12.898 35.5 12.1574ZM35.5 19.7324C37.9515 19.7324 40.2751 19.8715 42.4798 20.1137C43.8243 21.9695 45.1494 23.9316 46.3915 26.1162C47.5821 28.2102 48.6348 30.3535 49.5636 32.5C48.6347 34.6478 47.5828 36.7944 46.3915 38.8897C45.1533 41.068 43.8315 43.0174 42.4914 44.8687C40.2088 45.1223 37.8673 45.2676 35.5 45.2676C33.0485 45.2676 30.7249 45.1285 28.5202 44.8863C27.1757 43.0305 25.8506 41.0743 24.6085 38.8897C23.4172 36.7944 22.3656 34.6478 21.4364 32.5C22.3649 30.3535 23.4179 28.2102 24.6085 26.1162C25.8472 23.9379 27.1682 21.9826 28.5086 20.1313C30.7912 19.8777 33.1327 19.7324 35.5 19.7324ZM49.5405 21.3576C50.7142 21.6454 51.8426 21.9561 52.9033 22.3023C52.663 23.405 52.3691 24.5288 52.0366 25.6644C51.6559 24.939 51.2868 24.2113 50.8752 23.4875C50.4518 22.7431 49.9818 22.0743 49.5405 21.3576ZM21.4537 21.3635C21.0139 22.0779 20.5468 22.7455 20.1248 23.4875C19.7133 24.2114 19.3439 24.9389 18.9634 25.6644C18.6301 24.5265 18.3315 23.4013 18.0909 22.2964C19.1711 21.9499 20.2966 21.643 21.4537 21.3635ZM13.2201 24.2268C13.8434 26.8994 14.708 29.6698 15.8201 32.4941C14.7104 35.3117 13.8494 38.0771 13.2258 40.7438C8.07398 38.2175 5.17708 35.0727 5.17708 32.5C5.17708 29.8594 7.99305 26.85 12.7116 24.4557C12.8726 24.3739 13.0555 24.3067 13.2201 24.2268ZM57.7742 24.2562C62.926 26.7825 65.8229 29.9273 65.8229 32.5C65.8229 35.1406 63.007 38.15 58.2884 40.5443C58.1274 40.6261 57.9445 40.6932 57.7799 40.7732C57.1563 38.099 56.2987 35.326 55.1856 32.5C56.2941 29.6848 57.1512 26.9207 57.7742 24.2562ZM35.5 26.4917C32.231 26.4917 29.5833 29.1804 29.5833 32.5C29.5833 35.8196 32.231 38.5083 35.5 38.5083C38.769 38.5083 41.4167 35.8196 41.4167 32.5C41.4167 29.1804 38.769 26.4917 35.5 26.4917ZM18.9634 39.3356C19.3442 40.0613 19.7188 40.7885 20.1305 41.5125C20.5535 42.2564 21.0187 42.9262 21.4595 43.6424C20.2858 43.3546 19.1574 43.0439 18.0967 42.6977C18.3372 41.5943 18.6306 40.4719 18.9634 39.3356ZM52.0366 39.3415C52.3695 40.4783 52.6687 41.5997 52.9091 42.7036C51.8289 43.0501 50.7034 43.357 49.5463 43.6365C49.9861 42.9221 50.4532 42.2545 50.8752 41.5125C51.2858 40.7901 51.6568 40.0655 52.0366 39.3415ZM17.3051 47.955C19.9122 48.7479 22.7269 49.3806 25.7121 49.8149C27.5518 52.1842 29.4564 54.316 31.4092 56.187C28.0895 58.4994 25.0313 59.7486 22.7191 59.7486C21.7842 59.7486 21.0042 59.5583 20.3385 59.1677C18.0872 57.8489 16.9308 53.8656 17.2473 48.5182C17.2582 48.335 17.2908 48.1404 17.3051 47.955ZM53.6949 47.955C53.7091 48.1404 53.7419 48.335 53.7527 48.5182C54.0692 53.8656 52.9128 57.8459 50.6615 59.1677C49.9958 59.5583 49.2187 59.7486 48.2809 59.7486C45.9687 59.7486 42.9105 58.4998 39.5908 56.187C41.5438 54.3157 43.4536 52.1846 45.2937 49.8149C48.2768 49.3806 51.0894 48.7474 53.6949 47.955ZM33.0964 50.4604C33.8945 50.4876 34.6883 50.5249 35.5 50.5249C36.3117 50.5249 37.1055 50.4876 37.9036 50.4604C37.0983 51.3179 36.3019 52.1014 35.5 52.8426C34.6981 52.1013 33.9017 51.3179 33.0964 50.4604Z" fill="url(#paint0_linear_18_17)"/>
<defs>
<linearGradient id="paint0_linear_18_17" x1="35.5" y1="0" x2="35.5" y2="65" gradientUnits="userSpaceOnUse">
<stop stop-color="#33D2FF"/>
<stop offset="0.5" stop-color="#7404BF"/>
<stop offset="1" stop-color="#0029FA" stop-opacity="0.39"/>
</linearGradient>
</defs>
</svg>
