<?xml version="1.0" encoding="utf-8"?>
<!-- Generator: Adobe Illustrator 25.2.1, SVG Export Plug-In . SVG Version: 6.00 Build 0)  -->
<svg version="1.1" id="Camada_1" xmlns="http://www.w3.org/2000/svg" xmlns:xlink="http://www.w3.org/1999/xlink" x="0px" y="0px"
	 viewBox="0 0 420.4 297.6" style="enable-background:new 0 0 420.4 297.6;" xml:space="preserve">
<style type="text/css">
	.st0{fill:#808080;}
</style>
<path class="st0" d="M242.6,257.4c0.9-25.6,17.8-45.6,41.1-54.2c7.7-2.9,15.2-5.9,21.7-10.9c24.8-19,36.1-46.8,34.2-77.8
	c-0.4-7.1-1.5-14.8-0.7-21.3c3.5-26.9,26.4-44.2,49.8-54.7c0.2-0.1,0.2-0.3,0.2-0.4s-0.1-0.1-0.1-0.1c-10.4-5.4-22.7-7.6-33.2-0.9
	c-0.6,0.4-1.5,0.2-1.9-0.4c-0.1-0.1-0.1-0.2-0.1-0.3C348.9,24.3,342,17.8,329,15.5c-14.4-2.6-23.2,2.1-34.3,10.9
	c-20.2,15.8-40.1,31.8-59.9,47.9c-0.2,0.1-0.2,0.4-0.1,0.5s0.2,0.1,0.3,0.1c7.4-0.2,15-0.3,22.6-0.4c21.1-0.2,36.8,8.4,46.8,26
	c13.9,24.3,8.8,52.1-11.3,70.9c-11.8,11-25.7,16-41.7,15c-5-0.3-14.6-2.3-13.9-9.3c0.3-2.8,2.1-4.2,5.5-4.1c7,0.1,14.3-0.1,20.8-1.9
	c13.4-3.6,23-11.6,28.9-24c8.1-17.1,4.4-37.9-10.2-49.9c-6.7-5.5-14.5-8.1-23.6-8c-18.8,0.3-32.1,0.6-40,1
	c-3.8,0.2-6.9,1.9-10.2,4.4c-16,12.5-32,25-48.1,37.4c-4.1,3.2-11.9,9.9-23.3,20.1c-0.3,0.2-0.2,0.4,0.1,0.4
	c11.1,0.9,22.1,0.8,33.1-0.1c12.7-1.1,23.4-5.2,33.9-11.8c9-5.6,17.9-11.2,26.8-16.9c2.2-1.4,4-2.3,5.2-2.5c7.1-1.5,13,6.6,6.3,11.5
	c-17.5,12.7-37.6,27-58.5,31.7c-11.8,2.6-24,3.4-37.8,3.7c-18.5,0.5-36.8,0.8-54.8,1.1c-1.4,0-1.6-0.4-0.4-1.2
	c7.7-5.8,15.3-11.6,22.9-17.6c40.1-31.6,80.2-63.1,120.3-94.6C253.1,41.2,271.3,26,290,11.4C304.6,0,320.8-2.8,338.5,2.9
	c8.7,2.8,15.7,8,21.2,15.6c0.2,0.3,0.5,0.4,0.8,0.3c17.5-3.5,36.7,3,51.5,12.1c3.1,1.9,5.8,4,8.3,6.4c0.2,0.2,0.2,0.6,0,0.9
	c0,0.1-0.1,0.1-0.2,0.1C408.3,44,396.5,50,384.9,56.4c-14.3,7.9-29.5,21.3-31.2,37.4c-0.8,7.9,1.2,19,1.3,25.4
	c0.6,32.2-13.8,62.4-38.4,82.8c-7.1,5.9-14.7,10.3-23,13.2c-28,10-39.1,26-36.1,56.3c0.1,0.9,0.9,1.6,1.8,1.7
	c9.7,0.4,21.8-0.2,30.1,2c10.1,2.8,19.3,10.1,26.1,18.1v0.1h-0.1c-9.9-4.3-22.5-4.4-33.1-4.5c-30.9-0.1-61.8-0.3-92.7-0.4
	c-12.5,0-29,2.6-40,8.9c-0.7,0.4-0.7,0.3-0.1-0.2c13.6-11.2,25.1-20.7,43.1-23.2c13.3-1.9,27.8-0.8,41.7-0.5c0.2,0,0.3-0.1,0.3-0.3
	c0-0.1,0-0.2-0.1-0.2c-10.6-11.3-23.3-19.3-38.2-23.8c-2.7-0.8-4.5-0.8-7.2,0.6c-6.6,3.4-13.9,5-22.1,4.9
	c-34.2-0.3-89.7-0.4-166.5-0.2c-0.5,0-0.6-0.2-0.3-0.6c0.8-1,1.9-2.1,3.2-3.3c14.4-13.3,31.8-29.1,49-40.7
	c16.8-11.3,33.3-14.9,53.3-14.5c12.7,0.3,25.1,2.2,35.9-2.9c7.1-3.3,13.6-6.6,21.5-9c7.4-2.2,14.7-4.8,21.7-7.8
	c0.2-0.1,0.5,0,0.6,0.2s0,0.3-0.1,0.5c-15.4,19.4-33.2,32.6-58.7,34c-1.8,0.1-6.5-0.1-14-0.6c-20-1.3-37.3,0.8-53.8,13.3
	c-6.8,5.1-12.7,10.4-17.9,15.9c-0.3,0.3-0.2,0.5,0.2,0.5c3,0.2,6,0.4,8.9,0.4c39.8,0,79.5,0,119.2-0.1c14.2,0,29.5-15.2,41.3-25.6
	c2-1.8,4-1.5,5.8,0.9c0.2,0.2,0.2,0.5,0.2,0.8c-0.7,6.2-8.3,14-13.1,18.6c-0.3,0.3-0.3,0.5,0.1,0.6c14.6,4.5,27.4,12,38.5,22.5
	C242.4,258,242.6,257.9,242.6,257.4z"/>
</svg>
