<svg width="173" height="103" viewBox="0 0 173 103" fill="none" xmlns="http://www.w3.org/2000/svg">
<path d="M99.833 89.0867C100.203 80.2265 107.158 73.3045 116.746 70.328C119.915 69.3243 123.001 68.286 125.676 66.5555C135.882 59.9795 140.532 50.3579 139.75 39.6287C139.585 37.1714 139.132 34.5064 139.462 32.2567C140.902 22.9466 150.326 16.959 159.955 13.3249C160.037 13.2903 160.037 13.2211 160.037 13.1865C160.037 13.1519 159.996 13.1519 159.996 13.1519C155.716 11.2829 150.655 10.5215 146.334 12.8404C146.087 12.9788 145.717 12.9096 145.552 12.702C145.511 12.6674 145.511 12.6327 145.511 12.5981C143.577 8.4103 140.737 6.16063 135.388 5.3646C129.462 4.46473 125.841 6.09141 121.273 9.13711C112.96 14.6055 104.771 20.1432 96.6232 25.7154C96.5409 25.75 96.5409 25.8538 96.582 25.8885C96.6232 25.9231 96.6643 25.9231 96.7055 25.9231C99.7507 25.8538 102.878 25.8192 106.006 25.7846C114.689 25.7154 121.149 28.6919 125.264 34.7833C130.984 43.1936 128.886 52.8152 120.614 59.3219C115.759 63.129 110.038 64.8596 103.454 64.5135C101.397 64.4096 97.4462 63.7174 97.7343 61.2947C97.8577 60.3256 98.5984 59.8411 99.9976 59.8757C102.878 59.9103 105.882 59.8411 108.557 59.2181C114.071 57.9721 118.022 55.2033 120.45 50.9116C123.783 44.9933 122.26 37.7944 116.252 33.6411C113.495 31.7376 110.285 30.8377 106.541 30.8723C98.8042 30.9762 93.3311 31.08 90.0801 31.2184C88.5164 31.2876 87.2407 31.876 85.8827 32.7413C79.2985 37.0676 72.7143 41.3938 66.0889 45.6855C64.4017 46.793 61.1919 49.1119 56.5007 52.6422C56.3772 52.7114 56.4184 52.7806 56.5418 52.7806C61.1096 53.0921 65.6363 53.0575 70.1629 52.746C75.3891 52.3653 79.7923 50.9463 84.1132 48.662C87.8168 46.7238 91.4793 44.7856 95.1417 42.8128C96.0471 42.3283 96.7878 42.0168 97.2816 41.9476C100.203 41.4284 102.631 44.2319 99.8741 45.9278C92.6727 50.3233 84.4012 55.2725 75.8006 56.8992C70.9448 57.7991 65.9243 58.076 60.2454 58.1798C52.6325 58.3528 45.1018 58.4567 37.6945 58.5605C37.1184 58.5605 37.0361 58.4221 37.5299 58.1452C40.6986 56.1378 43.8261 54.1304 46.9536 52.0538C63.4552 41.1169 79.9569 30.2147 96.4586 19.3125C104.154 14.2594 111.643 8.99867 119.339 3.94558C125.347 1.36867e-05 132.013 -0.969072 139.297 1.00371C142.877 1.9728 145.758 3.77253 148.021 6.4029C148.103 6.50673 148.227 6.54134 148.35 6.50673C155.552 5.29538 163.453 7.54504 169.543 10.6946C170.819 11.3522 171.93 12.079 172.959 12.9096C173.041 12.9788 173.041 13.1173 172.959 13.2211C172.959 13.2557 172.918 13.2557 172.877 13.2557C168.021 15.2285 163.165 17.3051 158.391 19.5202C152.507 22.2544 146.252 26.8922 145.552 32.4644C145.223 35.1986 146.046 39.0403 146.087 41.2554C146.334 52.3999 140.408 62.8522 130.285 69.9127C127.363 71.9547 124.236 73.4775 120.82 74.4812C109.298 77.9422 104.73 83.4799 105.965 93.9668C106.006 94.2782 106.335 94.5205 106.705 94.5551C110.697 94.6936 115.676 94.4859 119.092 95.2473C123.248 96.2164 127.034 98.743 129.832 101.512V101.546H129.791C125.717 100.058 120.532 100.024 116.17 99.9889C103.454 99.9543 90.7385 99.8851 78.0228 99.8505C72.8789 99.8505 66.0889 100.75 61.5623 102.931C61.2742 103.069 61.2742 103.035 61.5211 102.862C67.1177 98.9852 71.8501 95.6973 79.2573 94.832C84.7305 94.1744 90.6974 94.5551 96.4174 94.659C96.4997 94.659 96.5409 94.6243 96.5409 94.5551C96.5409 94.5205 96.5409 94.4859 96.4997 94.4859C92.1377 90.575 86.9115 87.8061 80.7799 86.2487C79.6688 85.9718 78.9281 85.9718 77.817 86.4563C75.1011 87.6331 72.097 88.1868 68.7226 88.1522C54.6489 88.0484 31.8099 88.0138 0.205714 88.083C-4.23938e-05 88.083 -0.0411937 88.0138 0.0822602 87.8754C0.41147 87.5292 0.864135 87.1485 1.3991 86.7332C7.32489 82.1301 14.4852 76.6616 21.5632 72.6469C28.4766 68.7359 35.2666 67.4899 43.4969 67.6284C48.7231 67.7322 53.8258 68.3898 58.2702 66.6247C61.1919 65.4825 63.8668 64.3404 67.1177 63.5098C70.1629 62.7483 73.1669 61.8485 76.0475 60.8102C76.1298 60.7756 76.2533 60.8102 76.2944 60.8794C76.3356 60.9486 76.2944 60.9832 76.2533 61.0524C69.916 67.7668 62.5911 72.3354 52.0975 72.8199C51.3568 72.8545 49.4226 72.7853 46.3363 72.6123C38.106 72.1623 30.9869 72.8891 24.1969 77.2154C21.3986 78.9805 18.9707 80.8149 16.8308 82.7184C16.7074 82.8223 16.7485 82.8915 16.9131 82.8915C18.1477 82.9607 19.3822 83.0299 20.5756 83.0299C36.9538 83.0299 53.2909 83.0299 69.6279 82.9953C75.4714 82.9953 81.7676 77.7346 86.6234 74.1351C87.4464 73.5121 88.2695 73.6159 89.0102 74.4466C89.0925 74.5158 89.0925 74.6196 89.0925 74.7235C88.8044 76.8693 85.6769 79.5689 83.7017 81.161C83.5782 81.2648 83.5782 81.334 83.7428 81.3686C89.7509 82.9261 95.0183 85.5219 99.5861 89.1559C99.7507 89.2944 99.833 89.2598 99.833 89.0867Z" fill="url(#paint0_linear_28_237)"/>
<defs>
<linearGradient id="paint0_linear_28_237" x1="-4.23923e-05" y1="51.5017" x2="173.008" y2="51.5017" gradientUnits="userSpaceOnUse">
<stop offset="0.0808717" stop-color="#525252" stop-opacity="0"/>
<stop offset="0.3009" stop-color="#616161" stop-opacity="0.3758"/>
<stop offset="0.4614" stop-color="#6F6F6F" stop-opacity="0.65"/>
<stop offset="0.5354" stop-color="#5F5F5F" stop-opacity="0.7004"/>
<stop offset="0.6667" stop-color="#484848" stop-opacity="0.7899"/>
<stop offset="0.7914" stop-color="#3B3B3B" stop-opacity="0.8749"/>
<stop offset="0.9015" stop-color="#363636" stop-opacity="0.95"/>
</linearGradient>
</defs>
</svg>
