<?xml version="1.0" encoding="utf-8"?>
<!-- Generator: Adobe Illustrator 25.2.1, SVG Export Plug-In . SVG Version: 6.00 Build 0)  -->
<svg version="1.1" id="Camada_1" xmlns="http://www.w3.org/2000/svg" xmlns:xlink="http://www.w3.org/1999/xlink" x="0px" y="0px"
	 viewBox="0 0 738.4 453.4" style="enable-background:new 0 0 738.4 453.4;" xml:space="preserve">
<style type="text/css">
	.st0{fill:#FFFFFF;}
	.st1{fill:url(#SVGID_1_);}
	.st2{fill:url(#SVGID_2_);}
</style>
<path class="st0" d="M362.3,257.4c0.9-25.6,17.8-45.6,41.1-54.2c7.7-2.9,15.2-5.9,21.7-10.9c24.8-19,36.1-46.8,34.2-77.8
	c-0.4-7.1-1.5-14.8-0.7-21.3c3.5-26.9,26.4-44.2,49.8-54.7c0.2-0.1,0.2-0.3,0.2-0.4s-0.1-0.1-0.1-0.1c-10.4-5.4-22.7-7.6-33.2-0.9
	c-0.6,0.4-1.5,0.2-1.9-0.4c-0.1-0.1-0.1-0.2-0.1-0.3c-4.7-12.1-11.6-18.6-24.6-20.9c-14.4-2.6-23.2,2.1-34.3,10.9
	c-20.2,15.8-40.1,31.8-59.9,47.9c-0.2,0.1-0.2,0.4-0.1,0.5s0.2,0.1,0.3,0.1c7.4-0.2,15-0.3,22.6-0.4c21.1-0.2,36.8,8.4,46.8,26
	c13.9,24.3,8.8,52.1-11.3,70.9c-11.8,11-25.7,16-41.7,15c-5-0.3-14.6-2.3-13.9-9.3c0.3-2.8,2.1-4.2,5.5-4.1c7,0.1,14.3-0.1,20.8-1.9
	c13.4-3.6,23-11.6,28.9-24c8.1-17.1,4.4-37.9-10.2-49.9c-6.7-5.5-14.5-8.1-23.6-8c-18.8,0.3-32.1,0.6-40,1
	c-3.8,0.2-6.9,1.9-10.2,4.4c-16,12.5-32,25-48.1,37.4c-4.1,3.2-11.9,9.9-23.3,20.1c-0.3,0.2-0.2,0.4,0.1,0.4
	c11.1,0.9,22.1,0.8,33.1-0.1c12.7-1.1,23.4-5.2,33.9-11.8c9-5.6,17.9-11.2,26.8-16.9c2.2-1.4,4-2.3,5.2-2.5c7.1-1.5,13,6.6,6.3,11.5
	c-17.5,12.7-37.6,27-58.5,31.7c-11.8,2.6-24,3.4-37.8,3.7c-18.5,0.5-36.8,0.8-54.8,1.1c-1.4,0-1.6-0.4-0.4-1.2
	c7.7-5.8,15.3-11.6,22.9-17.6c40.1-31.6,80.2-63.1,120.3-94.6C372.8,41.2,391,26,409.7,11.4C424.3,0,440.5-2.8,458.2,2.9
	c8.7,2.8,15.7,8,21.2,15.6c0.2,0.3,0.5,0.4,0.8,0.3c17.5-3.5,36.7,3,51.5,12.1c3.1,1.9,5.8,4,8.3,6.4c0.2,0.2,0.2,0.6,0,0.9
	c0,0.1-0.1,0.1-0.2,0.1C528,44,516.2,50,504.6,56.4c-14.3,7.9-29.5,21.3-31.2,37.4c-0.8,7.9,1.2,19,1.3,25.4
	c0.6,32.2-13.8,62.4-38.4,82.8c-7.1,5.9-14.7,10.3-23,13.2c-28,10-39.1,26-36.1,56.3c0.1,0.9,0.9,1.6,1.8,1.7
	c9.7,0.4,21.8-0.2,30.1,2c10.1,2.8,19.3,10.1,26.1,18.1v0.1h-0.1c-9.9-4.3-22.5-4.4-33.1-4.5c-30.9-0.1-61.8-0.3-92.7-0.4
	c-12.5,0-29,2.6-40,8.9c-0.7,0.4-0.7,0.3-0.1-0.2c13.6-11.2,25.1-20.7,43.1-23.2c13.3-1.9,27.8-0.8,41.7-0.5c0.2,0,0.3-0.1,0.3-0.3
	c0-0.1,0-0.2-0.1-0.2c-10.6-11.3-23.3-19.3-38.2-23.8c-2.7-0.8-4.5-0.8-7.2,0.6c-6.6,3.4-13.9,5-22.1,4.9
	c-34.2-0.3-89.7-0.4-166.5-0.2c-0.5,0-0.6-0.2-0.3-0.6c0.8-1,1.9-2.1,3.2-3.3c14.4-13.3,31.8-29.1,49-40.7
	c16.8-11.3,33.3-14.9,53.3-14.5c12.7,0.3,25.1,2.2,35.9-2.9c7.1-3.3,13.6-6.6,21.5-9c7.4-2.2,14.7-4.8,21.7-7.8
	c0.2-0.1,0.5,0,0.6,0.2s0,0.3-0.1,0.5c-15.4,19.4-33.2,32.6-58.7,34c-1.8,0.1-6.5-0.1-14-0.6c-20-1.3-37.3,0.8-53.8,13.3
	c-6.8,5.1-12.7,10.4-17.9,15.9c-0.3,0.3-0.2,0.5,0.2,0.5c3,0.2,6,0.4,8.9,0.4c39.8,0,79.5,0,119.2-0.1c14.2,0,29.5-15.2,41.3-25.6
	c2-1.8,4-1.5,5.8,0.9c0.2,0.2,0.2,0.5,0.2,0.8c-0.7,6.2-8.3,14-13.1,18.6c-0.3,0.3-0.3,0.5,0.1,0.6c14.6,4.5,27.4,12,38.5,22.5
	C362.1,258,362.3,257.9,362.3,257.4z"/>
<path class="st0" d="M225.9,429.2c13.2,2.8,26.1,0.6,38.8-6.8c1.3-0.8,2.6-0.6,3.6,0.5c3.4,3.5,8.6,8.4,3.9,13.3
	c-3.1,3.2-7.1,5.4-11.9,6.7c-35,9.2-72-2.4-82.9-40.1c-8-27.8,6.4-56.8,32.1-68.2c16.1-7.2,32.7-7.8,50-2
	c5.7,1.9,18.9,8.7,12.3,16.8c-1.5,1.9-3.4,3.4-5.6,4.6c-0.3,0.2-0.6,0.1-0.9,0c-13.2-8.8-27.1-11.2-41.6-7.4
	C179.7,358.2,182.5,419.9,225.9,429.2z"/>
<path class="st0" d="M684.4,375.3c4.9,2,14.4,5,28.5,8.8c2.9,0.8,6.1,2.1,9.7,4.1c8.9,4.8,14.6,11.2,15.6,21.4
	c1.9,20.4-11.1,31.3-29.7,34.8c-14.6,2.7-34.7,1.9-47.9-5.7c-4.4-2.5-10.4-7.6-11.2-12.7c-0.8-5.2,1.8-9.5,7.3-10.3
	c2.1-0.3,3.8,0.5,5.3,2.2c6.4,7,14.1,10.8,23.8,12c10.3,1.3,34.9,0.4,37.4-13.8c2.2-12.7-16.2-17.3-24.8-19.5
	c-10.8-2.8-20.5-6.3-29.1-10.6c-21.4-10.7-26.1-40.9-2-51.9c11.5-5.2,26.5-6,38.7-3.6c9.3,1.9,22.5,7.2,25.4,17.2
	c2,7-2.4,11.9-9.6,11.3c-0.3,0-0.5-0.2-0.7-0.4c-10-16-34.4-16.3-49.2-8.8c-2.7,1.4-4.2,3.4-4.7,6.1
	C665.4,365.5,677.3,372.4,684.4,375.3z"/>
<path class="st0" d="M627.2,424.3c-1.4-0.9-2.7-1.1-3.8-0.5c-6.1,3.1-10.5,5.4-17.3,6.3c-6.4,0.8-37.5,2.9-37.9-7.8
	c-0.3-7.9-0.4-19.1-0.2-33.7c0-0.3,0.2-0.5,0.5-0.5c11.5-0.1,25.6,0.1,37.1,0.1c0.2,0,0.3,0,0.5-0.1c3-1.7,2.6-6.2,2.2-8.1
	c-0.1-0.2,0-0.4,0-0.7c0.2-1-0.2-4.9-1.8-6.8c-0.2-0.2-0.4-0.3-0.7-0.3c-11.9,0.1-25.5,0.1-37.4,0.1c-0.4,0-0.6-0.2-0.6-0.6
	c-0.2-5.1-0.2-10.2-0.1-15.3c0.1-4.9-0.7-7.5,4.5-8.7c16.3-3.6,33.6-4.2,48.1,4.6c1.9,1.2,4.2,1.3,6,0.3c6.6-3.6,3.6-11.8-0.6-16
	c-3.7-3.7-9.8-4.8-14.9-5.5c-12.2-1.8-24.3-1.8-36.5,0.1c-5.6,0.8-9.9,2.1-13,3.8c-4.3,2.4-7.1,7.7-8.9,12.2
	c-0.7,1.8-1.1,4.1-1.1,6.9c0,20.5-0.1,41-0.2,61.5c-0.1,21.7,10,28.1,30,30.3c13.8,1.5,27,0.7,39.5-2.4c3.5-0.9,6.2-2.1,8.2-3.6
	C634.6,435.4,632.8,427.9,627.2,424.3z"/>
<path class="st0" d="M427.5,333.1c0-1.6,1.3-2.9,2.9-2.9l0,0l46.1-0.1c31.9-0.1,57.9,25.2,58,56.3l0,0v2
	c0.1,31.2-25.8,56.5-57.8,56.5l-46.2,0.1c-1.6,0-2.9-1.3-2.9-2.9l0,0L427.5,333.1z M444.1,347.2L444,428c0,0.5,0.4,1,1,1l31.5,0.1
	c22.8,0,41.3-17.6,41.3-39.3l0,0v-3.9c0-21.8-18.4-39.4-41.2-39.5h-31.5C444.6,346.2,444.1,346.6,444.1,347.2z"/>
<path class="st0" d="M281.9,381.8l62.7-53.1V344l-52.9,43.5v0.4l52.8,43.5v15.3l-62.7-53.1v-11.8L281.9,381.8L281.9,381.8z"/>
<path class="st0" d="M327.7,412.4l32.7-47.6h8l-32.8,47.6H327.7z"/>
<path class="st0" d="M418.9,394l-62.7,52.8v-15.3l53.2-43.5v-0.5L356.2,344v-15.3l62.7,52.8V394z"/>
<g>
	
		<linearGradient id="SVGID_1_" gradientUnits="userSpaceOnUse" x1="0" y1="153.0027" x2="89.9554" y2="153.0027" gradientTransform="matrix(1 0 0 -1 0 540.8157)">
		<stop  offset="0.1173" style="stop-color:#7404BF"/>
		<stop  offset="0.5335" style="stop-color:#33D2FF"/>
		<stop  offset="1" style="stop-color:#0029FA"/>
	</linearGradient>
	<path class="st1" d="M18.7,428.1c0,0.6,0.3,1,1,1c23-0.1,44.9-0.1,65.6-0.1c4.7,0,4.8,13.8,4.6,16.6c-0.1,0.7-0.4,1-1.1,1
		l-87.9,0.3c-0.6,0-0.9-0.3-0.9-0.8V329.3c0-0.3,0.2-0.5,0.5-0.5l17.4,0.1c0.4,0,0.8,0.4,0.8,0.8L18.7,428.1z"/>
	
		<linearGradient id="SVGID_2_" gradientUnits="userSpaceOnUse" x1="64.3" y1="153.2028" x2="157.9" y2="153.2028" gradientTransform="matrix(1 0 0 -1 0 540.8157)">
		<stop  offset="0.1173" style="stop-color:#7404BF"/>
		<stop  offset="0.5335" style="stop-color:#33D2FF"/>
		<stop  offset="1" style="stop-color:#0029FA"/>
	</linearGradient>
	<path class="st2" d="M83,391.2l-0.1,18.3c0,0.4-0.3,0.8-0.8,0.8l0,0l-16.8,0.1c-0.4,0-0.8-0.3-0.8-0.8l-0.2-80.2
		c0-0.4,0.3-0.8,0.8-0.8l17.3,0.1c0.4,0,0.8,0.3,0.8,0.8v43.1c0,0.4,0.3,0.8,0.8,0.8l0,0l54.2-0.4c0.4,0,0.8-0.4,0.8-0.8l0,0
		l-0.4-41.9c0-0.4,0.3-0.8,0.8-0.8l0,0l17.7,0.1c0.4,0,0.8,0.3,0.8,0.8l-0.2,115.4c0,0.4-0.3,0.8-0.8,0.8l0,0l-17.1,0.1
		c-0.4,0-0.8-0.3-0.8-0.8l0,0l0.1-54.6c0-0.4-0.3-0.8-0.8-0.8l-54.4-0.1C83.3,390.5,83,390.8,83,391.2L83,391.2z"/>
</g>
</svg>
